<?xml version="1.0" standalone="no"?><!DOCTYPE svg PUBLIC "-//W3C//DTD SVG 1.1//EN" "http://www.w3.org/Graphics/SVG/1.1/DTD/svg11.dtd"><svg t="1598176595279" class="icon" viewBox="0 0 1024 1024" version="1.1" xmlns="http://www.w3.org/2000/svg" p-id="2177" xmlns:xlink="http://www.w3.org/1999/xlink" width="200" height="200"><defs><style type="text/css">@font-face { font-family: rbicon; src: url("chrome-extension://dipiagiiohfljcicegpgffpbnjmgjcnf/fonts/rbicon.woff2") format("woff2"); font-weight: normal; font-style: normal; }
</style></defs><path d="M737.984 537.344h-189.013333a12.672 12.672 0 0 0-12.650667 12.672v188.949333A179.349333 179.349333 0 0 0 714.666667 917.333333c111.936 0 202.666667-90.730667 202.666666-202.624a179.370667 179.370667 0 0 0-179.349333-177.344m-263.936-0.042666c-0.362667 0-0.704 0-1.066667 0.042666h-169.984A196.330667 196.330667 0 0 0 106.666667 732.650667a184.682667 184.682667 0 0 0 184.682666 184.661333h1.002667a194.325333 194.325333 0 0 0 194.325333-194.304v-174.016a12.672 12.672 0 0 0-12.629333-11.712M309.333333 106.709333C197.418667 106.666667 106.666667 197.397333 106.666667 309.290667a177.344 177.344 0 0 0 177.344 177.344h189.226666a12.672 12.672 0 0 0 12.672-12.672v-189.973334c0-97.664-78.933333-176.917333-176.576-177.344m434.730667 0a207.701333 207.701333 0 0 0-206.72 207.744v158.336a12.693333 12.693333 0 0 0 11.648 13.909334h162.645333A205.696 205.696 0 0 0 917.333333 279.957333 173.248 173.248 0 0 0 744.064 106.666667" p-id="2178"></path></svg>