<?xml version="1.0" standalone="no"?><!DOCTYPE svg PUBLIC "-//W3C//DTD SVG 1.1//EN" "http://www.w3.org/Graphics/SVG/1.1/DTD/svg11.dtd"><svg t="1598176795959" class="icon" viewBox="0 0 1024 1024" version="1.1" xmlns="http://www.w3.org/2000/svg" p-id="1910" xmlns:xlink="http://www.w3.org/1999/xlink" width="200" height="200"><defs><style type="text/css">@font-face { font-family: rbicon; src: url("chrome-extension://dipiagiiohfljcicegpgffpbnjmgjcnf/fonts/rbicon.woff2") format("woff2"); font-weight: normal; font-style: normal; }
</style></defs><path d="M388.010667 763.093333c-0.256 3.072-0.64 6.122667-1.173334 9.152-1.002667 6.4-2.453333 15.914667-4.266666 31.274667-0.938667 8.618667-2.602667 18.090667-3.562667 31.104-1.792 23.914667 3.584 89.152 3.584 95.146667 0 5.973333-4.309333 13.952-9.514667 18.88-7.445333 7.125333-22.442667 8.298667-29.312 7.68a25.322667 25.322667 0 0 1-12.650666-3.093334c-183.018667-98.346667-248.021333-205.866667-217.024-353.365333 9.344-46.08 30.997333-89.109333 52.693333-129.066667 24.853333-46.058667 46.506667-89.088 49.621333-135.146666 0-15.424 9.301333-24.661333 24.789334-27.690667 12.437333-3.093333 24.789333 3.072 34.133333 12.330667 15.445333 27.626667 24.789333 52.224 30.933333 76.778666C393.173333 280.32 430.336 181.973333 417.92 98.986667a24.682667 24.682667 0 0 1 9.28-27.626667c6.208-6.186667 18.645333-9.258667 27.925333-6.186667 6.144 3.093333 145.706667 46.144 229.397334 239.68-3.136-15.36-6.208-30.698667-12.416-42.965333-6.165333-12.330667 0-27.690667 9.28-36.885333 9.28-6.165333 24.789333-9.237333 37.205333 0 34.133333 21.461333 207.701333 193.557333 198.4 399.445333-6.208 132.138667-92.992 245.781333-251.093333 331.861333-3.093333 3.072-6.165333 3.072-9.301334 3.072-10.026667 0.789333-16.213333 0.789333-18.56 0a38.272 38.272 0 0 1-13.994666-9.514666 38.869333 38.869333 0 0 1-8.896-19.84c0-3.072-0.277333-5.034667 0.725333-9.813334 0.789333-3.456 1.962667-6.826667 3.52-10.026666 68.202667-129.066667 30.997333-313.429333-80.576-417.877334-18.624 73.749333-58.901333 125.973333-93.034667 169.024-25.856 34.133333-51.626667 65.557333-57.813333 101.76h0.064z" p-id="1911"></path></svg>